<svg id="Layer_1" data-name="Layer 1" xmlns="http://www.w3.org/2000/svg" viewBox="0 0 46.87 12.1"><defs><style>.cls-1{fill:#ffd522;}</style></defs><title>Artboard 1 copy 5</title><rect class="cls-1" y="8.64" width="46.58" height="1.87" rx="0.94" ry="0.94"/><path d="M1.36,9.43a1,1,0,0,1-.57-.12A.51.51,0,0,1,.57,9a1.81,1.81,0,0,1,0-.4v-6a1.75,1.75,0,0,1,0-.4.49.49,0,0,1,.22-.31,1.07,1.07,0,0,1,.58-.12H3.65a2.84,2.84,0,0,1,.93.16,2.76,2.76,0,0,1,.87.51,2.44,2.44,0,0,1,.63.84,2.79,2.79,0,0,1,.24,1.2,3,3,0,0,1-.13.89,2.69,2.69,0,0,1-.41.79,2.58,2.58,0,0,1-.69.62,3,3,0,0,1-.93.38H2.21V8.6a1.75,1.75,0,0,1,0,.4.49.49,0,0,1-.22.31A1,1,0,0,1,1.36,9.43Zm.85-3.94H3.73A.89.89,0,0,0,4,5.43a.92.92,0,0,0,.3-.18,1,1,0,0,0,.23-.32,1.13,1.13,0,0,0,.09-.47,1.07,1.07,0,0,0-.14-.55.89.89,0,0,0-.36-.36,1.13,1.13,0,0,0-.54-.12H2.21ZM6,9.21a.84.84,0,0,1-.64.24A1,1,0,0,1,4.84,9L2.91,6.25,4.79,6,6.2,8a1.24,1.24,0,0,1,.24.45.44.44,0,0,1-.06.35A1.56,1.56,0,0,1,6,9.21Z"/><path d="M8.75,9.43a1.17,1.17,0,0,1-.57-.11A.46.46,0,0,1,8,9a1.75,1.75,0,0,1,0-.4v-6a.92.92,0,0,1,.18-.65,1,1,0,0,1,.67-.18h4.15a2.63,2.63,0,0,1,.41,0,.52.52,0,0,1,.31.22,1.08,1.08,0,0,1,.12.59,1,1,0,0,1-.12.57.51.51,0,0,1-.32.22,2.48,2.48,0,0,1-.41,0H9.6V4.84h2.26a1.61,1.61,0,0,1,.39,0,.41.41,0,0,1,.27.18,1.08,1.08,0,0,1,.1.52,1,1,0,0,1-.1.49.42.42,0,0,1-.28.19,2.5,2.5,0,0,1-.4,0H9.6V7.76h3.33a1.77,1.77,0,0,1,.41,0,.5.5,0,0,1,.31.21,1.06,1.06,0,0,1,.12.59,1.05,1.05,0,0,1-.12.57.46.46,0,0,1-.32.21,1.73,1.73,0,0,1-.41,0Z"/><path d="M18.94,9.52a3.82,3.82,0,0,1-1-.15,4.26,4.26,0,0,1-1.06-.46,3.91,3.91,0,0,1-.94-.79A3.55,3.55,0,0,1,15.25,7,4.14,4.14,0,0,1,15,5.54a4,4,0,0,1,.24-1.42A3.71,3.71,0,0,1,15.92,3a3.93,3.93,0,0,1,.93-.76,4.62,4.62,0,0,1,1.06-.45A3.92,3.92,0,0,1,19,1.68a3.23,3.23,0,0,1,1,.13,3.38,3.38,0,0,1,.67.28l.34.18c.13.09.25.19.37.29a.52.52,0,0,1,.19.39.86.86,0,0,1-.05.27,1,1,0,0,1-.15.26,1.56,1.56,0,0,1-.34.37.62.62,0,0,1-.32.11.54.54,0,0,1-.25-.06l-.29-.18-.22-.14a1.55,1.55,0,0,0-.39-.14,2.09,2.09,0,0,0-.61-.07,2.31,2.31,0,0,0-1.49.54,1.86,1.86,0,0,0-.52.7,2.19,2.19,0,0,0-.2,1,2.19,2.19,0,0,0,.2,1,2.05,2.05,0,0,0,.53.69,2.4,2.4,0,0,0,1.48.55,1.93,1.93,0,0,0,.57-.07,1.59,1.59,0,0,0,.4-.16l.3-.17.24-.14a.63.63,0,0,1,.26-.07.56.56,0,0,1,.32.12,1.71,1.71,0,0,1,.32.39,1.28,1.28,0,0,1,.15.28.86.86,0,0,1,.05.27.48.48,0,0,1-.18.38,4.44,4.44,0,0,1-.38.27l-.33.19a2.9,2.9,0,0,1-.67.27A3.28,3.28,0,0,1,18.94,9.52Z"/><path d="M23.7,9.43a1.17,1.17,0,0,1-.57-.11A.46.46,0,0,1,22.92,9a1.75,1.75,0,0,1,0-.4v-6a1.75,1.75,0,0,1,0-.4.44.44,0,0,1,.21-.31,1.49,1.49,0,0,1,1.17,0,.47.47,0,0,1,.21.31,1.84,1.84,0,0,1,0,.41v6a1.75,1.75,0,0,1-.05.4.47.47,0,0,1-.21.31A1.18,1.18,0,0,1,23.7,9.43Z"/><path d="M27,9.43a1.08,1.08,0,0,1-.59-.12A.54.54,0,0,1,26.19,9a1.81,1.81,0,0,1,0-.4v-6a1.75,1.75,0,0,1,.05-.4.46.46,0,0,1,.22-.31A1,1,0,0,1,27,1.76h2.25a2.74,2.74,0,0,1,.92.16,2.66,2.66,0,0,1,.87.51,2.59,2.59,0,0,1,.9,2,2.54,2.54,0,0,1-.9,2,2.63,2.63,0,0,1-.87.5,2.82,2.82,0,0,1-.93.17H27.83V8.6a1.75,1.75,0,0,1,0,.4.53.53,0,0,1-.22.31A1.07,1.07,0,0,1,27,9.43Zm.84-3.94h1.42a1.05,1.05,0,0,0,.48-.11.94.94,0,0,0,.39-.33,1,1,0,0,0,.16-.59,1,1,0,0,0-.14-.54.92.92,0,0,0-.37-.36,1,1,0,0,0-.53-.13H27.83Z"/><path d="M34.24,9.43a1.17,1.17,0,0,1-.57-.11A.46.46,0,0,1,33.46,9a1.75,1.75,0,0,1,0-.4v-6a.87.87,0,0,1,.19-.65.94.94,0,0,1,.67-.18h4.15a2.5,2.5,0,0,1,.4,0,.49.49,0,0,1,.31.22,1.08,1.08,0,0,1,.12.59,1,1,0,0,1-.12.57.52.52,0,0,1-.31.22,2.71,2.71,0,0,1-.41,0H35.09V4.84h2.26a1.51,1.51,0,0,1,.39,0,.41.41,0,0,1,.27.18,1.08,1.08,0,0,1,.1.52,1,1,0,0,1-.1.49.42.42,0,0,1-.28.19,2.5,2.5,0,0,1-.4,0H35.09V7.76h3.34a1.68,1.68,0,0,1,.4,0,.47.47,0,0,1,.31.21,1.06,1.06,0,0,1,.12.59,1.05,1.05,0,0,1-.12.57.46.46,0,0,1-.31.21,1.84,1.84,0,0,1-.41,0Z"/><path d="M43.19,9.54a3.44,3.44,0,0,1-1-.14,3.1,3.1,0,0,1-.73-.35,2.54,2.54,0,0,1-.48-.4,1.59,1.59,0,0,1-.25-.3,1.49,1.49,0,0,1-.23-.42.54.54,0,0,1,.05-.37,1.39,1.39,0,0,1,.33-.4.91.91,0,0,1,.44-.22.68.68,0,0,1,.4.11,1.48,1.48,0,0,1,.38.34,1.67,1.67,0,0,0,.52.44,1.17,1.17,0,0,0,.55.13,1.82,1.82,0,0,0,.61-.09.76.76,0,0,0,.39-.28.91.91,0,0,0,.13-.49.48.48,0,0,0-.18-.39,1.6,1.6,0,0,0-.49-.25l-.67-.21A6,6,0,0,1,42.2,6a3.33,3.33,0,0,1-.48-.21,2.08,2.08,0,0,1-.43-.3,1.54,1.54,0,0,1-.36-.4,2.05,2.05,0,0,1-.23-.52,2.38,2.38,0,0,1-.09-.68,2.09,2.09,0,0,1,.32-1.15,2.46,2.46,0,0,1,.89-.8,2.72,2.72,0,0,1,1.29-.29,4.48,4.48,0,0,1,.88.08,3.44,3.44,0,0,1,.62.21,2.34,2.34,0,0,1,.4.24l.2.18a.92.92,0,0,1,.34.49.84.84,0,0,1-.23.56.94.94,0,0,1-.55.43.81.81,0,0,1-.6-.19,2.47,2.47,0,0,0-.27-.21.91.91,0,0,0-.31-.16,1.59,1.59,0,0,0-.49-.06,1.17,1.17,0,0,0-.32,0,.92.92,0,0,0-.26.14.79.79,0,0,0-.18.22.61.61,0,0,0-.06.28.53.53,0,0,0,.17.41,1,1,0,0,0,.45.24l.63.18a6.66,6.66,0,0,1,.7.19,3.61,3.61,0,0,1,.64.27,2,2,0,0,1,.55.4,1.83,1.83,0,0,1,.39.6,2.33,2.33,0,0,1,.15.89A2.33,2.33,0,0,1,45.7,8.2,2.08,2.08,0,0,1,45,9a2.67,2.67,0,0,1-.9.43A3.11,3.11,0,0,1,43.19,9.54Z"/></svg>